<?xml version="1.0" standalone="no"?>
<!DOCTYPE svg PUBLIC "-//W3C//DTD SVG 20010904//EN"
 "http://www.w3.org/TR/2001/REC-SVG-20010904/DTD/svg10.dtd">
<svg version="1.0" xmlns="http://www.w3.org/2000/svg"
 width="512.000000pt" height="512.000000pt" viewBox="0 0 512.000000 512.000000"
 preserveAspectRatio="xMidYMid meet">

<g transform="translate(0.000000,512.000000) scale(0.100000,-0.100000)"
fill="#FFFFFF" stroke="none">
<path d="M1284 4092 c-6 -4 -297 -341 -647 -750 -603 -704 -637 -746 -637
-782 0 -36 34 -78 637 -782 350 -409 641 -746 647 -750 18 -12 3411 -9 3486 2
164 26 293 144 336 305 20 74 20 2376 0 2450 -20 76 -53 133 -110 190 -62 62
-138 101 -226 115 -75 11 -3468 14 -3486 2z m3516 -224 c60 -31 97 -81 110
-147 14 -74 14 -2248 0 -2322 -13 -66 -50 -116 -110 -146 l-44 -23 -1691 0
-1690 1 -565 660 c-311 363 -565 664 -565 669 0 5 254 306 565 669 l565 660
1690 1 1691 0 44 -22z"/>
<path d="M2247 3173 l-67 -68 272 -272 273 -273 -273 -273 -272 -272 68 -68
c37 -37 72 -67 77 -67 6 0 130 120 277 267 l268 268 270 -270 270 -270 72 73
73 72 -270 270 -270 270 270 270 270 270 -73 72 -72 73 -270 -270 -270 -270
-268 268 c-147 147 -272 267 -277 267 -6 0 -41 -30 -78 -67z"/>
</g>
</svg>
