<?xml version="1.0" standalone="no"?>
<!DOCTYPE svg PUBLIC "-//W3C//DTD SVG 20010904//EN"
 "http://www.w3.org/TR/2001/REC-SVG-20010904/DTD/svg10.dtd">
<svg version="1.0" xmlns="http://www.w3.org/2000/svg"
 width="512.000000pt" height="512.000000pt" viewBox="0 0 512.000000 512.000000"
 preserveAspectRatio="xMidYMid meet">

<g transform="translate(0.000000,512.000000) scale(0.100000,-0.100000)"
fill="#FFFFFF" stroke="none">
<path d="M1155 4091 c-45 -11 -82 -38 -107 -80 l-23 -36 0 -1415 0 -1415 23
-36 c41 -67 114 -97 187 -78 27 8 341 230 1003 711 1040 756 1002 725 1002
818 0 92 37 62 -1002 818 -885 643 -1009 728 -1048 721 -3 -1 -19 -4 -35 -8z"/>
<path d="M3777 4086 c-75 -20 -127 -63 -162 -131 l-30 -59 0 -1336 0 -1336 30
-60 c94 -184 356 -184 450 0 l30 60 3 1305 c2 912 -1 1322 -9 1358 -29 145
-174 237 -312 199z"/>
</g>
</svg>
