<?xml version="1.0" encoding="UTF-8"?>
<!DOCTYPE svg PUBLIC "-//W3C//DTD SVG 1.1//EN" "http://www.w3.org/Graphics/SVG/1.1/DTD/svg11.dtd">
<svg xmlns="http://www.w3.org/2000/svg" version="1.1" width="512px" height="512px" style="shape-rendering:geometricPrecision; text-rendering:geometricPrecision; image-rendering:optimizeQuality; fill-rule:evenodd; clip-rule:evenodd" xmlns:xlink="http://www.w3.org/1999/xlink">
<g><path style="opacity:0.968" fill="#FFFFFF" d="M 94.5,67.5 C 121.502,67.3334 148.502,67.5 175.5,68C 187.071,72.9931 190.571,81.4931 186,93.5C 183.545,98.1492 179.712,100.983 174.5,102C 150.502,102.5 126.502,102.667 102.5,102.5C 102.972,127.565 102.472,152.565 101,177.5C 97.6516,184.342 92.1516,187.676 84.5,187.5C 76.0605,187.563 70.5605,183.563 68,175.5C 67.3333,148.5 67.3333,121.5 68,94.5C 71.682,80.3189 80.5154,71.3189 94.5,67.5 Z"/></g>
<g><path style="opacity:0.968" fill="#FFFFFF" d="M 335.5,67.5 C 362.502,67.3334 389.502,67.5 416.5,68C 430.667,71.5 439.5,80.3333 443,94.5C 443.667,121.5 443.667,148.5 443,175.5C 438.007,187.071 429.507,190.571 417.5,186C 412.851,183.545 410.017,179.712 409,174.5C 408.5,150.502 408.333,126.502 408.5,102.5C 383.435,102.972 358.435,102.472 333.5,101C 326.658,97.6516 323.324,92.1516 323.5,84.5C 323.64,76.0376 327.64,70.371 335.5,67.5 Z"/></g>
<g><path style="opacity:0.968" fill="#FFFFFF" d="M 78.5,323.5 C 90.3176,321.024 98.151,325.357 102,336.5C 102.5,360.498 102.667,384.498 102.5,408.5C 126.502,408.333 150.502,408.5 174.5,409C 185.803,412.847 189.97,420.68 187,432.5C 184.744,437.757 180.91,441.257 175.5,443C 148.5,443.667 121.5,443.667 94.5,443C 80.3333,439.5 71.5,430.667 68,416.5C 67.3333,389.5 67.3333,362.5 68,335.5C 69.9363,330.068 73.4363,326.068 78.5,323.5 Z"/></g>
<g><path style="opacity:0.968" fill="#FFFFFF" d="M 420.5,323.5 C 431.422,321.375 438.922,325.375 443,335.5C 443.667,362.5 443.667,389.5 443,416.5C 439.5,430.667 430.667,439.5 416.5,443C 389.5,443.667 362.5,443.667 335.5,443C 325.212,438.927 321.379,431.427 324,420.5C 325.908,414.26 330.075,410.427 336.5,409C 360.498,408.5 384.498,408.333 408.5,408.5C 408.333,384.498 408.5,360.498 409,336.5C 410.617,330.058 414.45,325.725 420.5,323.5 Z"/></g>
</svg>
