<?xml version="1.0" encoding="UTF-8"?>
<!DOCTYPE svg PUBLIC "-//W3C//DTD SVG 1.1//EN" "http://www.w3.org/Graphics/SVG/1.1/DTD/svg11.dtd">
<svg xmlns="http://www.w3.org/2000/svg" version="1.1" width="512px" height="512px" style="shape-rendering:geometricPrecision; text-rendering:geometricPrecision; image-rendering:optimizeQuality; fill-rule:evenodd; clip-rule:evenodd" xmlns:xlink="http://www.w3.org/1999/xlink">
<g><path style="opacity:0.97" fill="#FFFFFF" d="M 54.5,31.5 C 185.632,162.132 316.632,292.965 447.5,424C 439.667,431.833 431.833,439.667 424,447.5C 396.667,420.167 369.333,392.833 342,365.5C 300.894,380.943 258.394,386.777 214.5,383C 125.774,375.488 57.9409,334.322 11,259.5C 7.56044,252.955 4.39378,246.288 1.5,239.5C 18.1945,202.965 42.5279,172.465 74.5,148C 84.156,140.837 94.156,134.17 104.5,128C 80.1667,103.667 55.8333,79.3333 31.5,55C 39.3691,47.2983 47.0358,39.4649 54.5,31.5 Z M 128.5,153.5 C 143.581,167.078 158.248,181.245 172.5,196C 158.074,219.553 155.574,244.387 165,270.5C 176.928,297.418 197.428,313.584 226.5,319C 246.976,321.973 265.809,317.806 283,306.5C 293.833,317.333 304.667,328.167 315.5,339C 265.982,354.298 216.316,354.964 166.5,341C 110.352,324.003 67.6851,290.17 38.5,239.5C 60.4175,202.246 90.4175,173.58 128.5,153.5 Z"/></g>
<g><path style="opacity:0.96" fill="#FFFFFF" d="M 216.5,95.5 C 282.838,90.4157 343.504,106.249 398.5,143C 433.512,168.168 459.846,200.334 477.5,239.5C 462.812,272.031 441.812,299.865 414.5,323C 413.833,323.667 413.167,323.667 412.5,323C 404.833,315.333 397.167,307.667 389.5,300C 410.011,282.667 427.011,262.5 440.5,239.5C 404.48,178.287 351.147,142.121 280.5,131C 259.514,128.494 238.514,127.494 217.5,128C 208.167,118.667 198.833,109.333 189.5,100C 198.545,98.0824 207.545,96.5824 216.5,95.5 Z"/></g>
</svg>
