<?xml version="1.0" encoding="UTF-8"?>
<!DOCTYPE svg PUBLIC "-//W3C//DTD SVG 1.1//EN" "http://www.w3.org/Graphics/SVG/1.1/DTD/svg11.dtd">
<svg xmlns="http://www.w3.org/2000/svg" version="1.1" width="512px" height="512px" style="shape-rendering:geometricPrecision; text-rendering:geometricPrecision; image-rendering:optimizeQuality; fill-rule:evenodd; clip-rule:evenodd" xmlns:xlink="http://www.w3.org/1999/xlink">
<g><path style="opacity:0.965" fill="#FFFFFF" d="M 94.5,84.5 C 123.155,83.3222 136.988,96.9889 136,125.5C 130.392,146.086 116.892,155.252 95.5,153C 74.4859,147.163 65.3192,133.329 68,111.5C 71.682,97.3189 80.5154,88.3189 94.5,84.5 Z"/></g>
<g><path style="opacity:0.971" fill="#FFFFFF" d="M 199.5,101.5 C 276.834,101.333 354.167,101.5 431.5,102C 441.805,106.11 445.639,113.61 443,124.5C 441.092,130.74 436.925,134.573 430.5,136C 353.5,136.667 276.5,136.667 199.5,136C 187.186,130.731 183.686,121.898 189,109.5C 191.831,105.821 195.331,103.154 199.5,101.5 Z"/></g>
<g><path style="opacity:0.966" fill="#FFFFFF" d="M 99.5,220.5 C 121.913,221.581 134.246,233.247 136.5,255.5C 134.583,276.584 123.083,288.251 102,290.5C 75.2989,286.431 64.2989,271.098 69,244.5C 74.3888,230.263 84.5555,222.263 99.5,220.5 Z"/></g>
<g><path style="opacity:0.947" fill="#FFFFFF" d="M 203.5,237.5 C 278.167,237.333 352.834,237.5 427.5,238C 440.534,240.554 445.7,248.387 443,261.5C 440.101,268.4 434.934,272.234 427.5,273C 352.833,273.667 278.167,273.667 203.5,273C 192.957,271.956 187.29,266.123 186.5,255.5C 187.47,244.867 193.137,238.867 203.5,237.5 Z"/></g>
<g><path style="opacity:0.965" fill="#FFFFFF" d="M 95.5,357.5 C 123.642,356.808 137.142,370.475 136,398.5C 130.189,419.504 116.355,428.671 94.5,426C 74.2085,419.601 65.3752,405.768 68,384.5C 71.7826,369.883 80.9493,360.883 95.5,357.5 Z"/></g>
<g><path style="opacity:0.971" fill="#FFFFFF" d="M 199.5,374.5 C 276.501,374.333 353.501,374.5 430.5,375C 439.177,377.356 443.51,383.023 443.5,392C 443.812,400.691 439.812,406.358 431.5,409C 354.167,409.667 276.833,409.667 199.5,409C 187.186,403.731 183.686,394.898 189,382.5C 191.855,378.789 195.355,376.123 199.5,374.5 Z"/></g>
</svg>
