<?xml version="1.0" standalone="no"?>
<!DOCTYPE svg PUBLIC "-//W3C//DTD SVG 20010904//EN"
 "http://www.w3.org/TR/2001/REC-SVG-20010904/DTD/svg10.dtd">
<svg version="1.0" xmlns="http://www.w3.org/2000/svg"
 width="512.000000pt" height="512.000000pt" viewBox="0 0 512.000000 512.000000"
 preserveAspectRatio="xMidYMid meet">

<g transform="translate(0.000000,512.000000) scale(0.100000,-0.100000)"
fill="#FFFFFF" stroke="none">
<path d="M172 4947 l-122 -122 2388 -2388 2387 -2387 123 122 122 123 -711
711 -712 712 31 86 c67 183 72 236 72 719 0 434 0 434 -22 467 -33 48 -70 72
-121 77 -87 10 -163 -41 -186 -124 -7 -24 -11 -186 -11 -426 0 -321 -3 -400
-16 -459 l-16 -71 -154 154 -154 154 0 1020 c0 884 -2 1029 -15 1080 -44 168
-174 304 -345 361 -81 27 -225 25 -310 -4 -163 -56 -292 -194 -335 -357 -12
-49 -15 -144 -15 -570 l0 -510 -878 878 -877 877 -123 -123z"/>
<path d="M1389 2984 c-11 -14 -15 -92 -17 -443 -3 -475 1 -530 54 -690 65
-196 164 -352 311 -492 168 -160 373 -268 591 -310 l62 -12 0 -178 0 -178
-289 -3 c-274 -3 -291 -4 -317 -24 -49 -36 -67 -70 -71 -131 -5 -75 23 -127
86 -160 l44 -23 717 0 717 0 44 23 c63 33 91 85 86 160 -4 61 -22 95 -71 131
-26 20 -43 21 -317 24 l-289 3 0 178 0 178 63 12 c95 19 234 68 320 114 42 22
77 43 77 47 0 3 -55 61 -123 128 l-123 123 -58 -26 c-150 -66 -360 -84 -524
-45 -288 69 -518 282 -614 570 l-32 95 -4 321 -3 321 -153 152 c-139 139 -154
151 -167 135z"/>
<path d="M2050 2255 c0 -174 44 -289 150 -395 102 -102 219 -151 360 -149 142
2 157 -23 -195 329 l-315 315 0 -100z"/>
</g>
</svg>
