<?xml version="1.0" standalone="no"?>
<!DOCTYPE svg PUBLIC "-//W3C//DTD SVG 20010904//EN"
 "http://www.w3.org/TR/2001/REC-SVG-20010904/DTD/svg10.dtd">
<svg version="1.0" xmlns="http://www.w3.org/2000/svg"
 width="512.000000pt" height="512.000000pt" viewBox="0 0 512.000000 512.000000"
 preserveAspectRatio="xMidYMid meet">

<g transform="translate(0.000000,512.000000) scale(0.100000,-0.100000)"
fill="#FFFFFF" stroke="none">
<path d="M952 4429 c-101 -20 -192 -95 -241 -198 l-26 -56 0 -1615 0 -1615 26
-56 c37 -79 90 -133 167 -171 l67 -33 1615 0 1615 0 67 33 c77 38 130 92 167
171 l26 56 0 1615 0 1615 -33 67 c-38 77 -92 130 -171 167 l-56 26 -1590 1
c-875 1 -1609 -2 -1633 -7z m944 -1083 c446 -320 970 -710 985 -733 24 -36 24
-70 0 -106 -10 -16 -216 -173 -457 -349 -645 -471 -611 -448 -649 -448 -68 0
-65 -45 -65 850 0 895 -3 850 65 850 25 0 55 -16 121 -64z m1434 42 c18 -13
43 -36 54 -51 21 -28 21 -33 21 -777 0 -740 0 -749 -21 -776 -35 -47 -70 -67
-128 -72 -66 -5 -125 23 -159 78 l-22 35 0 735 c0 717 0 736 20 768 46 77 165
107 235 60z"/>
</g>
</svg>
