<?xml version="1.0" standalone="no"?>
<!DOCTYPE svg PUBLIC "-//W3C//DTD SVG 20010904//EN"
 "http://www.w3.org/TR/2001/REC-SVG-20010904/DTD/svg10.dtd">
<svg version="1.0" xmlns="http://www.w3.org/2000/svg"
 width="512.000000pt" height="512.000000pt" viewBox="0 0 512.000000 512.000000"
 preserveAspectRatio="xMidYMid meet">

<g transform="translate(0.000000,512.000000) scale(0.100000,-0.100000)"
fill="#FFFFFF" stroke="none">
<path d="M2912 4287 l-292 -292 293 -293 292 -292 73 72 72 73 -167 167 -168
168 511 0 510 0 50 -25 c52 -26 88 -70 104 -126 13 -46 13 -2312 0 -2358 -14
-51 -50 -97 -95 -123 l-40 -23 -645 -5 -645 -5 0 -100 0 -100 605 -3 c333 -1
635 2 672 7 139 19 260 106 321 230 l32 66 0 1235 0 1235 -32 66 c-60 122
-181 210 -316 230 -34 5 -280 9 -547 9 l-485 0 168 168 167 167 -73 73 -72 72
-293 -293z"/>
<path d="M1064 4090 c-125 -18 -249 -111 -307 -229 l-32 -66 0 -1235 0 -1235
32 -66 c60 -122 181 -210 316 -230 34 -5 280 -9 547 -9 l485 0 -168 -168 -167
-167 72 -73 73 -72 292 292 293 293 -292 292 -293 293 -72 -72 -73 -73 167
-167 168 -168 -511 0 -510 0 -50 25 c-57 28 -100 87 -109 149 -3 22 -5 559 -3
1191 l3 1150 27 45 c16 28 43 55 70 70 l43 25 645 5 645 5 0 100 0 100 -620 1
c-341 1 -643 -2 -671 -6z"/>
</g>
</svg>
