<?xml version="1.0" standalone="no"?>
<!DOCTYPE svg PUBLIC "-//W3C//DTD SVG 20010904//EN"
 "http://www.w3.org/TR/2001/REC-SVG-20010904/DTD/svg10.dtd">
<svg version="1.0" xmlns="http://www.w3.org/2000/svg"
 width="512.000000pt" height="512.000000pt" viewBox="0 0 512.000000 512.000000"
 preserveAspectRatio="xMidYMid meet">

<g transform="translate(0.000000,512.000000) scale(0.100000,-0.100000)"
fill="#FFFFFF" stroke="none">
<path d="M2090 4604 c-372 -44 -630 -142 -900 -343 -97 -72 -260 -235 -334
-334 -342 -460 -435 -1045 -249 -1581 223 -646 825 -1107 1496 -1144 310 -18
580 33 845 158 101 49 245 136 312 191 l35 29 520 -520 c358 -357 532 -524
557 -535 52 -21 98 -19 148 8 77 41 109 132 75 215 -11 25 -178 199 -535 557
l-518 520 69 95 c174 238 289 562 307 861 19 323 -34 592 -172 874 -244 496
-699 834 -1251 930 -89 15 -337 27 -405 19z m374 -360 c571 -107 1006 -550
1101 -1123 25 -149 17 -396 -19 -536 -67 -270 -184 -472 -380 -663 -185 -179
-376 -285 -630 -348 -141 -36 -388 -44 -537 -19 -574 96 -1016 529 -1124 1105
-24 125 -24 350 -1 478 91 499 444 905 923 1061 82 26 224 56 318 65 69 7 265
-4 349 -20z"/>
</g>
</svg>
