<?xml version="1.0" standalone="no"?>
<!DOCTYPE svg PUBLIC "-//W3C//DTD SVG 20010904//EN"
 "http://www.w3.org/TR/2001/REC-SVG-20010904/DTD/svg10.dtd">
<svg version="1.0" xmlns="http://www.w3.org/2000/svg"
 width="512.000000pt" height="512.000000pt" viewBox="0 0 512.000000 512.000000"
 preserveAspectRatio="xMidYMid meet">

<g transform="translate(0.000000,512.000000) scale(0.100000,-0.100000)"
fill="#FFFFFF" stroke="none">
<path d="M3580 4007 l0 -255 -287 -4 c-328 -5 -369 -12 -542 -94 -214 -101
-305 -192 -533 -532 l-170 -254 -165 249 c-139 207 -182 264 -262 343 -145
143 -314 233 -513 274 -110 23 -635 23 -678 1 -90 -47 -118 -178 -53 -255 53
-63 60 -64 378 -70 l290 -6 86 -30 c104 -37 211 -106 275 -177 26 -29 135
-184 242 -344 l195 -293 -195 -292 c-107 -161 -216 -316 -242 -345 -64 -71
-171 -140 -275 -177 l-86 -30 -290 -6 c-318 -6 -325 -7 -378 -70 -65 -77 -37
-208 53 -255 43 -22 568 -22 678 1 199 41 366 130 512 274 82 80 123 134 263
343 l165 249 170 -254 c228 -340 319 -431 533 -532 173 -82 214 -89 542 -94
l287 -4 0 -255 c0 -215 2 -254 14 -250 27 11 1006 667 1005 675 -1 9 -985 666
-1005 670 -12 3 -14 -36 -14 -247 l0 -251 -242 0 c-277 0 -325 8 -454 70 -141
68 -198 131 -425 472 -110 164 -199 302 -199 308 0 6 89 144 199 308 227 341
284 404 425 472 129 62 177 70 454 70 l242 0 0 -251 c0 -187 3 -250 12 -247
21 7 1007 663 1007 670 1 8 -978 664 -1005 675 -12 4 -14 -35 -14 -250z"/>
</g>
</svg>
